# File created by Blade
# Date/Time:  Thu Jan 22 18:06:27 2015
# Frame Rate: 120.000 fps
#------------------------------------------------------
:FULLY-SPECIFIED
:DEGREES
2814
root 0.432744 32.897400 -2.786665 6.702533 -8.773560 0.963152
RightUpLeg -18.147084 -6.709020 -3.408908
RightLeg 84.278975 -0.000000 -0.000000
RightFoot 0.200063 -9.008080 7.324958
RightToeBase -4.223839 -0.000000 0.000000
LeftUpLeg -2.280949 2.071712 -10.296012
LeftLeg 0.507163 -0.000000 -0.000000
LeftFoot -11.587204 8.811268 -5.207328
LeftToeBase 10.265175 -0.000000 -0.000000
Spine -8.005731 -2.486462 -3.609213
RightShoulder -17.833479 -17.344992 -19.620703
RightArm 24.823008 21.391350 53.697303
RightForeArm -4.689497 -0.000000 22.276837
RightHand 11.567126 -0.000000 0.818715
RightHandThumb1 -24.326973 -0.000000 -32.862282
LeftShoulder -22.148204 5.704503 25.316766
LeftArm 9.114206 -41.974095 -52.868931
LeftForeArm 10.417995 0.000000 66.483842
LeftHand -2.561046 -0.000000 34.621544
LeftHandThumb1 -26.253704 0.000000 33.147579
Head 13.455404 -2.389939 1.191061
2815
root 0.431493 32.897902 -2.785558 6.703701 -8.789264 0.973326
RightUpLeg -18.146532 -6.738318 -3.437649
RightLeg 84.245282 -0.000000 -0.000000
RightFoot 0.219918 -9.010156 7.305303
RightToeBase -4.236477 -0.000000 0.000000
LeftUpLeg -2.285755 2.127112 -10.302863
LeftLeg 0.515692 -0.000000 -0.000000
LeftFoot -11.613777 8.743871 -5.307673
LeftToeBase 10.412796 -0.000000 -0.000000
Spine -8.011081 -2.494709 -3.622261
RightShoulder -17.845675 -17.349541 -19.617469
RightArm 24.827063 21.416059 53.731621
RightForeArm -4.741277 -0.000000 22.233513
RightHand 11.582224 -0.000000 0.855217
RightHandThumb1 -24.326973 -0.000000 -32.862282
LeftShoulder -22.159304 5.685719 25.310808
LeftArm 9.092007 -42.061570 -52.868867
LeftForeArm 10.445133 -0.000000 66.456924
LeftHand -2.537073 -0.000000 34.653974
LeftHandThumb1 -26.253704 0.000000 33.147579
Head 13.466338 -2.388847 1.181103
2816
root 0.430386 32.898568 -2.784021 6.706930 -8.796840 0.977369
RightUpLeg -18.149988 -6.777018 -3.457713
RightLeg 84.227346 -0.000000 -0.000000
RightFoot 0.106681 -9.015755 7.624066
RightToeBase -3.841393 -0.000000 0.000000
LeftUpLeg -2.291773 2.194163 -10.305087
LeftLeg 0.525331 -0.000000 -0.000000
LeftFoot -11.634760 8.665463 -5.391128
LeftToeBase 10.539015 -0.000000 -0.000000
Spine -8.016992 -2.508990 -3.625532
RightShoulder -17.859610 -17.366502 -19.603491
RightArm 24.840797 21.444746 53.757057
RightForeArm -4.737222 -0.000000 22.205141
RightHand 11.548619 -0.000000 0.870324
RightHandThumb1 -24.326973 -0.000000 -32.862282
LeftShoulder -22.174179 5.680274 25.298293
LeftArm 9.090256 -42.169818 -52.897392
LeftForeArm 10.590395 0.000000 66.406233
LeftHand -2.407025 -0.000000 34.674838
LeftHandThumb1 -26.253704 0.000000 33.147579
Head 13.478884 -2.388793 1.169793
2817
root 0.428788 32.898975 -2.782317 6.708453 -8.788750 0.980194
RightUpLeg -18.143073 -6.842098 -3.474768
RightLeg 84.199841 -0.000000 -0.000000
RightFoot 0.107411 -8.962556 7.781562
RightToeBase -3.971198 -0.000000 0.000000
LeftUpLeg -2.295606 2.248921 -10.304988
LeftLeg 0.539812 -0.000000 -0.000000
LeftFoot -11.666263 8.589662 -5.495462
LeftToeBase 10.692203 -0.000000 -0.000000
Spine -8.018770 -2.528893 -3.626948
RightShoulder -17.861918 -17.361982 -19.605743
RightArm 24.804648 21.475747 53.780178
RightForeArm -4.737507 -0.000000 22.184795
RightHand 11.545715 -0.000000 0.896041
RightHandThumb1 -24.326973 -0.000000 -32.862282
LeftShoulder -22.170927 5.623835 25.301708
LeftArm 8.986031 -42.268138 -52.851375
LeftForeArm 10.327502 -0.000000 66.453793
LeftHand -2.268752 -0.000000 34.424896
LeftHandThumb1 -26.253704 0.000000 33.147579
Head 13.474157 -2.391893 1.160173
2818
root 0.427780 32.899517 -2.779414 6.706360 -8.768986 0.984558
RightUpLeg -18.127448 -6.935600 -3.493181
RightLeg 84.174040 -0.000000 -0.000000
RightFoot 0.126591 -8.969136 7.750244
RightToeBase -4.021656 -0.000000 0.000000
LeftUpLeg -2.291685 2.289723 -10.305489
LeftLeg 0.546260 -0.000000 -0.000000
LeftFoot -11.682386 8.526118 -5.535209
LeftToeBase 10.832762 -0.000000 -0.000000
Spine -8.019747 -2.557558 -3.626043
RightShoulder -17.870575 -17.374621 -19.601472
RightArm 24.790778 21.525748 53.811807
RightForeArm -4.757953 -0.000000 22.154972
RightHand 11.552772 -0.000000 0.916149
RightHandThumb1 -24.326973 -0.000000 -32.862282
LeftShoulder -22.168889 5.597561 25.298487
LeftArm 8.942736 -42.359358 -52.861285
LeftForeArm 10.300150 -0.000000 66.482852
LeftHand -2.294483 -0.000000 34.482318
LeftHandThumb1 -26.253704 0.000000 33.147579
Head 13.478481 -2.399772 1.139242
2819
root 0.425342 32.900188 -2.776312 6.701982 -8.742486 0.980497
RightUpLeg -18.107996 -7.026766 -3.492719
RightLeg 84.150914 -0.000000 -0.000000
RightFoot 0.132491 -8.974034 7.727440
RightToeBase -4.013207 -0.000000 0.000000
LeftUpLeg -2.285976 2.297911 -10.295466
LeftLeg 0.555482 -0.000000 -0.000000
LeftFoot -11.707909 8.488753 -5.601827
LeftToeBase 10.947427 -0.000000 -0.000000
Spine -8.017617 -2.571053 -3.626275
RightShoulder -17.887116 -17.381546 -19.582179
RightArm 24.753501 21.564508 53.813852
RightForeArm -4.764515 -0.000000 22.114934
RightHand 11.582815 -0.000000 0.918001
RightHandThumb1 -24.326973 -0.000000 -32.862282
LeftShoulder -22.158471 5.548254 25.306721
LeftArm 8.900847 -42.429214 -52.873136
LeftForeArm 10.350348 0.000000 66.499607
LeftHand -2.295510 -0.000000 34.549042
LeftHandThumb1 -26.253704 0.000000 33.147579
Head 13.483639 -2.440998 1.123995
2820
root 0.423469 32.900755 -2.773652 6.698950 -8.713321 0.978213
RightUpLeg -18.093849 -7.125259 -3.492210
RightLeg 84.136923 -0.000000 -0.000000
RightFoot 0.158108 -8.948862 7.660364
RightToeBase -4.168386 -0.000000 0.000000
LeftUpLeg -2.286872 2.319616 -10.289073
LeftLeg 0.575426 -0.000000 -0.000000
LeftFoot -11.723963 8.439896 -5.645190
LeftToeBase 11.016772 -0.000000 -0.000000
Spine -8.017060 -2.590043 -3.624082
RightShoulder -17.888081 -17.382928 -19.568674
RightArm 24.698047 21.599390 53.803840
RightForeArm -4.747236 0.000000 22.097740
RightHand 11.544147 -0.000000 0.910620
RightHandThumb1 -24.326973 -0.000000 -32.862282
LeftShoulder -22.143174 5.493539 25.320399
LeftArm 8.831995 -42.485804 -52.868584
LeftForeArm 10.380452 0.000000 66.520243
LeftHand -2.296950 0.000000 34.625250
LeftHandThumb1 -26.253704 0.000000 33.147579
Head 13.486267 -2.477976 1.108260
